<?xml version="1.0" standalone="no"?>
<!DOCTYPE svg PUBLIC "-//W3C//DTD SVG 20010904//EN"
 "http://www.w3.org/TR/2001/REC-SVG-20010904/DTD/svg10.dtd">
<svg version="1.0" xmlns="http://www.w3.org/2000/svg"
 width="222.000000pt" height="221.000000pt" viewBox="0 0 222.000000 221.000000"
 preserveAspectRatio="xMidYMid meet">
<metadata>
Created by potrace 1.14, written by Peter Selinger 2001-2017
</metadata>
<g transform="translate(0.000000,221.000000) scale(0.100000,-0.100000)"
fill="#000000" stroke="none">
<path d="M1096 2198 c-3 -7 -7 -24 -10 -38 -8 -33 -31 -59 -89 -99 -49 -34
-80 -82 -69 -110 3 -9 38 -51 79 -93 87 -93 90 -109 32 -169 -43 -44 -69 -101
-69 -153 0 -46 27 -130 50 -158 17 -20 17 -16 -5 39 -35 87 -34 164 2 216 15
21 35 43 46 48 10 6 25 26 33 44 19 47 4 84 -57 135 -101 85 -100 139 1 203
48 30 65 47 81 83 10 25 19 50 19 55 0 14 -40 11 -44 -3z"/>
<path d="M1190 2191 c0 -31 -49 -89 -102 -119 -63 -35 -76 -49 -84 -89 -5 -26
2 -39 55 -101 96 -112 98 -131 15 -207 -54 -50 -74 -113 -62 -194 7 -46 46
-137 55 -128 1 2 -7 28 -18 58 -16 41 -20 71 -17 127 3 69 5 74 43 110 21 20
32 28 23 17 -9 -11 -26 -42 -38 -70 -21 -50 -22 -82 -4 -173 8 -39 24 -52 25
-20 1 18 3 16 10 -11 15 -50 21 -31 11 34 -12 75 5 165 39 201 13 14 43 35 67
46 50 24 77 67 67 107 -3 14 -22 49 -41 77 -65 94 -54 162 28 185 24 6 55 16
71 21 32 12 91 83 82 98 -12 19 -34 10 -50 -19 -19 -38 -57 -64 -122 -85 -53
-18 -93 -54 -93 -85 0 -9 23 -54 50 -101 71 -121 69 -134 -39 -203 -50 -32
-80 -98 -81 -177 -1 -55 -3 -61 -12 -40 -13 32 -4 119 16 159 9 17 39 46 66
64 81 53 89 105 26 182 -47 57 -67 101 -60 129 7 29 40 61 74 71 59 17 92 40
115 80 31 52 31 55 1 55 -17 0 -26 -7 -30 -23 -8 -35 -54 -76 -111 -102 -106
-46 -112 -85 -30 -193 63 -83 71 -124 33 -159 -38 -34 -54 -39 -30 -9 36 46
30 89 -21 144 -62 67 -77 92 -77 128 0 37 22 59 93 95 36 18 59 37 74 65 28
48 28 60 3 67 -14 4 -20 0 -20 -12z"/>
<path d="M1000 2180 c0 -36 -31 -83 -91 -140 -87 -82 -84 -100 45 -204 72 -58
83 -103 38 -151 -75 -81 -79 -201 -10 -298 11 -16 18 -30 15 -33 -9 -9 -66 92
-77 138 -16 63 -7 105 35 164 58 81 48 123 -43 178 -71 43 -88 61 -97 105 -7
31 -4 37 53 90 36 33 63 67 66 84 3 15 8 38 11 52 4 20 1 25 -15 25 -15 0 -20
-7 -20 -25 0 -38 -26 -83 -81 -142 -39 -41 -49 -59 -49 -87 0 -37 7 -45 110
-115 85 -57 96 -98 44 -160 -14 -18 -29 -53 -35 -87 -12 -65 3 -121 48 -182
14 -18 23 -36 20 -39 -10 -9 -66 78 -82 128 -21 61 -15 100 25 163 17 25 30
57 30 70 0 35 -36 73 -94 101 -63 30 -94 60 -102 102 -6 28 0 38 46 87 45 48
52 61 59 110 4 31 6 58 4 60 -2 2 -13 1 -24 -1 -15 -4 -19 -11 -15 -27 9 -38
-14 -95 -60 -147 -36 -40 -44 -57 -44 -88 0 -44 12 -58 90 -96 108 -54 137
-108 88 -171 -17 -21 -24 -45 -26 -94 -5 -76 16 -130 71 -187 30 -32 56 -45
41 -22 -4 7 -1 10 7 7 8 -3 13 -12 13 -21 -1 -9 3 -14 9 -10 6 4 7 1 3 -6 -5
-7 -14 -10 -21 -7 -7 2 -12 -3 -11 -12 0 -10 -6 -16 -16 -16 -10 1 -16 -3 -15
-9 1 -6 -9 -14 -23 -18 -21 -6 -22 -7 -5 -9 11 -1 15 -4 7 -7 -6 -2 -10 -9 -6
-14 3 -5 0 -9 -7 -9 -7 0 -9 -3 -6 -6 3 -4 1 -16 -5 -27 -6 -12 -11 -34 -10
-49 0 -19 -3 -26 -11 -21 -8 4 -7 1 1 -9 8 -9 12 -25 11 -35 -2 -10 5 -33 14
-51 l18 -32 -50 -53 c-94 -99 -182 -123 -278 -74 -79 41 -141 16 -159 -62 -4
-14 -17 -45 -30 -68 -44 -76 -89 -83 -158 -22 -55 49 -130 72 -164 51 -20 -13
-3 -44 20 -36 35 11 97 -7 143 -43 58 -44 114 -54 143 -25 10 10 27 41 37 68
10 27 30 67 45 89 31 49 69 56 129 26 90 -46 186 -18 274 79 l53 59 26 -29
c14 -16 28 -26 32 -23 3 4 6 1 6 -5 0 -7 7 -12 15 -12 8 0 15 -8 15 -17 0 -15
2 -16 10 -3 7 11 10 11 10 2 0 -7 5 -10 10 -7 5 3 10 0 10 -7 0 -9 3 -9 10 2
9 13 10 13 10 0 0 -13 1 -13 10 0 9 13 10 13 10 0 0 -9 3 -11 8 -5 16 22 54
13 73 -19 33 -54 61 -157 53 -201 -7 -49 -19 -68 -74 -123 -40 -40 -42 -45
-37 -84 5 -36 15 -51 61 -93 59 -54 76 -80 76 -119 0 -25 -7 -32 -100 -99 -32
-24 -50 -46 -62 -80 l-18 -47 25 0 c19 0 25 5 25 23 0 35 44 92 94 121 45 26
76 68 76 102 0 9 -31 48 -69 88 -66 68 -91 103 -91 125 0 6 22 35 49 65 62 68
78 126 57 204 -8 29 -24 68 -35 88 -23 39 -26 48 -11 39 20 -12 62 -108 70
-158 10 -67 -1 -103 -54 -165 -41 -48 -44 -54 -36 -89 9 -37 18 -48 94 -106
45 -35 68 -79 60 -112 -4 -15 -30 -43 -63 -68 -57 -44 -74 -68 -86 -125 -6
-27 -4 -32 13 -32 15 0 21 9 26 41 5 34 19 53 76 109 61 59 70 73 70 104 0 29
-7 40 -37 63 -75 56 -133 119 -133 145 0 14 16 43 36 66 55 65 68 137 39 223
-15 44 -85 143 -85 120 0 -7 -4 -9 -10 -6 -17 11 -11 24 10 20 11 -2 20 0 20
5 0 5 14 16 30 25 37 19 60 9 133 -55 83 -74 103 -139 71 -234 -13 -39 -14
-52 -4 -77 16 -37 35 -48 116 -65 75 -15 108 -35 124 -74 11 -27 9 -35 -25
-96 -34 -60 -37 -72 -32 -117 7 -56 10 -62 31 -54 11 4 13 19 9 65 -5 50 -1
69 21 117 33 72 34 119 4 139 -13 8 -54 22 -91 30 -123 29 -149 55 -131 134
28 132 -19 222 -147 288 -46 23 -68 44 -33 30 8 -3 12 -2 9 4 -3 6 0 10 7 10
9 0 9 3 -2 10 -13 8 -12 10 3 10 10 0 15 5 12 10 -3 6 4 14 17 19 13 6 17 10
11 10 -15 1 -13 22 2 33 6 5 4 8 -5 8 -13 0 -13 1 0 10 13 9 13 10 0 10 -9 1
-5 6 10 15 14 8 19 14 12 15 -7 0 -10 4 -7 10 3 5 0 7 -7 5 -10 -4 -14 2 -14
19 0 14 4 22 10 19 5 -3 6 -1 3 4 -15 25 106 88 186 98 55 6 91 -9 150 -61 27
-25 46 -34 73 -34 38 0 50 10 127 104 65 78 109 73 176 -18 35 -47 49 -58 93
-71 64 -19 60 -19 56 6 -2 15 -11 23 -29 25 -44 4 -84 30 -120 78 -64 84 -115
92 -169 25 -62 -78 -117 -129 -137 -129 -11 0 -43 18 -72 39 -66 49 -126 66
-184 50 -57 -15 -107 -42 -136 -73 -24 -25 -49 -36 -36 -16 3 5 -3 17 -14 26
-16 14 -18 21 -9 38 10 19 10 20 -6 7 -15 -13 -18 -12 -23 7 -3 12 -10 19 -15
16 -5 -3 -12 4 -15 16 -4 16 -8 18 -14 8 -6 -10 -9 -8 -9 7 0 17 -2 18 -11 5
-8 -11 -9 -2 -5 35 14 134 75 231 151 241 l40 5 -40 -20 c-22 -11 -50 -29 -63
-40 -26 -22 -67 -109 -76 -161 -9 -47 7 -27 28 35 19 59 58 118 93 140 13 9
56 20 95 24 60 6 75 12 95 35 25 30 28 57 12 126 -13 57 -4 104 24 131 20 19
30 20 104 14 66 -5 88 -3 117 10 44 21 51 31 35 51 -10 13 -15 12 -36 -8 -22
-20 -38 -24 -132 -28 -147 -7 -145 -4 -136 -147 7 -110 7 -115 -16 -139 -17
-18 -32 -24 -63 -23 -28 1 -33 3 -16 6 33 6 68 39 75 72 3 14 -1 49 -10 76
-22 73 -19 119 9 151 22 27 27 28 106 25 75 -2 86 0 121 25 22 15 39 30 39 34
0 16 -34 20 -49 6 -32 -29 -91 -46 -156 -46 -57 0 -69 -3 -91 -26 -28 -27 -28
-24 -4 -156 16 -86 9 -115 -35 -134 -19 -8 -45 -14 -58 -14 -13 0 -45 -14 -71
-30 -59 -38 -96 -111 -104 -207 -3 -40 -8 -60 -13 -51 -7 10 -9 10 -10 -2 -1
-8 -5 -1 -9 15 -7 28 -8 29 -10 5 -1 -23 -2 -23 -10 -5 l-9 20 0 -20 c-1 -17
-3 -17 -11 -5 -9 13 -10 13 -10 0 0 -13 -1 -13 -10 0 -5 8 -10 10 -10 3 0 -12
-17 -12 -37 0 -9 5 -11 3 -7 -6 7 -19 -12 -32 -22 -16 -5 8 -3 9 6 4 9 -5 11
-4 6 4 -4 6 -11 9 -16 6 -5 -3 -11 -1 -15 5 -3 5 -1 10 4 10 6 0 -3 27 -20 60
-57 112 -50 190 24 268 25 26 32 41 32 74 0 36 -5 45 -39 72 -22 17 -57 47
-78 67 -64 61 -50 114 44 172 35 22 55 52 63 100 7 33 5 37 -14 37 -15 0 -21
-6 -21 -20z"/>
<path d="M737 2142 c-13 -3 -15 -10 -11 -28 10 -41 -5 -89 -43 -139 -44 -58
-55 -121 -27 -147 11 -9 48 -28 84 -43 76 -31 120 -69 120 -102 0 -13 -9 -41
-20 -63 -39 -76 -20 -174 50 -253 36 -42 33 -48 -6 -14 -40 34 -84 117 -84
159 0 21 9 61 20 89 24 60 19 102 -13 124 -12 8 -52 23 -89 35 -69 21 -118 63
-118 100 0 10 18 45 40 78 34 50 40 68 40 110 0 53 -8 66 -34 56 -12 -4 -13
-11 -5 -31 14 -37 1 -87 -37 -151 -36 -60 -41 -81 -23 -115 16 -29 24 -34 89
-53 66 -19 111 -41 127 -63 17 -22 16 -70 -2 -101 -14 -24 -14 -23 -8 22 5 41
2 50 -19 71 -17 17 -42 28 -74 32 -65 9 -130 38 -143 63 -18 33 -13 58 23 126
31 58 33 68 25 111 -11 57 -11 57 -33 49 -13 -5 -16 -12 -10 -28 15 -43 8
-101 -19 -155 -50 -102 -27 -150 81 -169 79 -14 131 -39 142 -68 6 -14 4 -42
-5 -75 -15 -57 -8 -114 20 -169 18 -35 90 -95 130 -109 l30 -11 -30 22 c-106
77 -158 165 -138 230 l11 33 1 -28 c3 -89 61 -186 135 -224 29 -15 30 -15 17
0 -16 20 -2 23 19 5 8 -7 -6 12 -32 42 -91 110 -104 176 -53 266 44 80 22 127
-76 161 -64 22 -119 71 -119 105 0 14 15 44 33 68 17 24 38 51 45 60 8 11 12
39 10 72 -3 45 -6 53 -21 50z"/>
<path d="M1458 2120 c-22 -38 -55 -59 -125 -77 -106 -27 -127 -74 -74 -168 16
-28 35 -70 42 -93 16 -54 3 -73 -76 -115 -78 -42 -115 -107 -114 -201 1 -91
17 -119 18 -31 2 129 32 186 120 224 91 39 101 83 45 196 -28 57 -35 80 -29
104 8 37 36 59 85 67 71 11 81 15 120 50 45 41 48 49 22 63 -14 7 -21 4 -34
-19z"/>
<path d="M1550 2091 c-16 -30 -70 -58 -134 -70 -118 -22 -134 -53 -87 -171 49
-124 38 -167 -47 -190 -57 -15 -117 -83 -131 -149 -16 -77 -15 -132 4 -125 11
4 15 -1 16 -17 1 -13 7 11 14 54 15 89 52 160 95 182 16 8 52 20 80 26 31 7
56 19 65 32 19 28 19 85 -1 132 -25 61 -23 119 5 149 22 23 32 26 96 26 64 0
75 3 113 31 46 34 50 43 25 57 -13 8 -21 4 -36 -14 -25 -32 -79 -54 -132 -54
-63 0 -101 -17 -115 -50 -10 -25 -9 -41 8 -97 34 -114 36 -135 13 -165 -13
-17 -35 -29 -59 -33 -81 -13 -140 -72 -165 -165 -14 -50 -15 -52 -16 -20 -1
44 40 134 71 154 13 8 48 24 79 35 84 32 98 75 53 171 -36 77 -36 126 -1 156
17 14 41 24 60 24 63 1 110 18 146 55 30 30 33 37 21 45 -22 14 -28 12 -40 -9z"/>
<path d="M481 2006 c-9 -11 -9 -20 -2 -35 17 -31 13 -95 -9 -151 -11 -28 -20
-60 -20 -71 0 -36 30 -68 68 -74 165 -26 179 -31 200 -71 7 -14 8 -34 1 -65
-18 -79 12 -165 76 -213 37 -28 124 -71 131 -64 2 3 -15 13 -39 23 -23 10 -65
42 -94 72 -60 61 -72 100 -55 180 19 94 -19 143 -110 143 -83 0 -148 43 -148
96 0 13 12 48 27 78 25 52 26 57 14 110 -13 58 -20 66 -40 42z"/>
<path d="M403 1949 c-9 -9 -8 -17 2 -33 23 -36 27 -88 11 -135 -23 -64 -21
-113 7 -138 17 -16 40 -22 107 -26 137 -8 156 -24 151 -128 -1 -41 4 -69 19
-102 25 -54 49 -77 114 -111 69 -37 93 -32 26 5 -115 63 -145 111 -136 216 5
66 4 75 -18 100 -21 25 -32 28 -110 34 -93 7 -129 23 -148 65 -10 21 -8 38 12
94 23 65 23 72 9 116 -15 50 -28 61 -46 43z"/>
<path d="M334 1887 c-8 -8 -5 -21 9 -44 21 -36 24 -75 12 -170 -7 -57 -6 -63
18 -87 24 -24 30 -25 125 -23 94 2 102 0 126 -22 22 -21 26 -33 26 -83 0 -64
22 -118 62 -154 40 -36 91 -62 133 -68 38 -6 38 -5 -15 16 -34 14 -75 42 -107
74 l-53 53 0 76 c0 72 -2 78 -30 107 -30 30 -32 30 -103 24 -86 -7 -135 8
-156 45 -13 24 -13 35 3 100 18 73 18 75 -3 122 -21 49 -28 54 -47 34z"/>
<path d="M1827 1867 c-43 -19 -53 -20 -105 -9 -79 16 -95 15 -126 -9 -25 -20
-26 -24 -26 -123 0 -137 -10 -152 -109 -158 -58 -3 -78 -9 -113 -34 -49 -34
-95 -103 -103 -154 -5 -31 -2 -28 23 23 56 111 108 147 214 147 35 0 68 4 74
8 29 19 42 68 37 142 -5 85 7 118 50 138 23 11 36 11 81 -2 70 -21 85 -20 141
4 40 17 45 23 35 35 -15 18 -13 18 -73 -8z"/>
<path d="M271 1816 c-9 -11 -6 -22 14 -52 23 -34 25 -45 23 -131 -3 -90 -2
-96 22 -115 21 -17 33 -19 95 -12 102 11 117 11 146 2 33 -11 46 -39 52 -104
7 -95 95 -176 203 -190 37 -4 36 -3 -16 16 -66 24 -123 63 -147 99 -10 15 -20
56 -24 95 -5 59 -11 73 -34 93 -26 23 -32 24 -129 18 -98 -7 -102 -6 -123 17
-27 29 -30 46 -19 122 7 51 5 66 -15 108 -24 51 -30 56 -48 34z"/>
<path d="M1651 1801 c-14 -14 -21 -40 -25 -98 -13 -153 -32 -179 -125 -167
-58 7 -139 -23 -175 -67 -32 -37 -64 -107 -71 -149 -5 -35 -5 -35 5 -5 17 52
74 137 113 169 37 29 43 31 129 31 86 0 91 1 114 28 20 24 24 39 24 95 0 78
22 131 62 150 23 11 34 10 80 -8 63 -24 106 -25 155 -5 32 14 35 17 22 30 -12
12 -20 12 -61 -3 -44 -15 -51 -15 -112 1 -83 22 -112 21 -135 -2z"/>
<path d="M1723 1760 c-30 -12 -42 -39 -49 -112 -3 -35 -14 -82 -24 -105 -22
-50 -52 -62 -111 -44 -45 13 -103 2 -155 -30 -36 -22 -108 -121 -102 -140 2
-7 18 11 36 39 32 53 97 108 140 119 13 3 50 0 82 -7 104 -22 136 5 149 124
10 82 24 110 64 127 25 11 36 9 80 -12 55 -25 146 -32 179 -13 14 8 15 11 3
28 -11 14 -18 16 -27 8 -30 -24 -82 -23 -155 3 -80 28 -79 27 -110 15z"/>
<path d="M213 1741 c-10 -15 -8 -23 12 -41 27 -26 48 -99 40 -143 -8 -44 7
-87 36 -109 24 -18 29 -18 93 -4 92 22 151 21 175 -3 11 -11 22 -41 26 -70 10
-74 58 -133 130 -160 31 -12 70 -21 88 -20 26 0 20 4 -30 18 -65 19 -123 56
-149 96 -9 13 -19 50 -23 81 -6 44 -14 63 -35 81 -32 27 -63 29 -136 7 -44
-13 -61 -14 -92 -5 -57 18 -71 45 -62 130 6 61 4 74 -15 104 -31 51 -45 60
-58 38z"/>
<path d="M1772 1700 c-26 -11 -46 -54 -57 -120 -9 -59 -43 -119 -72 -126 -12
-3 -45 0 -72 7 -98 25 -188 -15 -255 -115 -27 -40 -34 -62 -16 -51 6 3 10 0
10 -6 0 -7 23 10 51 38 56 56 122 93 166 93 16 0 48 -9 72 -20 24 -11 56 -20
73 -20 35 0 75 36 83 77 13 57 36 111 58 130 41 38 59 36 132 -12 66 -43 72
-45 120 -39 59 8 57 7 49 28 -5 13 -15 15 -53 10 -40 -5 -55 -1 -115 30 -74
39 -125 46 -150 21 -8 -9 -24 -46 -36 -83 -25 -84 -53 -130 -83 -137 -13 -4
-45 3 -74 14 -90 35 -183 6 -258 -82 -19 -22 -35 -36 -35 -31 0 20 84 106 123
125 41 21 79 22 174 3 55 -11 82 2 103 49 11 23 20 56 20 72 0 43 40 108 74
120 24 8 38 4 97 -28 58 -32 75 -37 106 -32 70 12 74 14 61 35 -10 15 -16 16
-32 8 -27 -14 -111 -3 -149 21 -41 24 -86 32 -115 21z"/>
<path d="M161 1662 c-8 -15 -4 -25 19 -47 34 -33 50 -79 50 -145 0 -25 7 -56
16 -68 29 -41 46 -43 135 -17 137 41 167 32 194 -63 30 -103 123 -165 243
-161 30 1 23 4 -32 15 -77 15 -145 51 -170 88 -9 14 -21 49 -27 77 -20 92 -66
114 -163 80 -81 -28 -126 -28 -154 2 -18 19 -22 35 -22 94 0 62 -4 75 -29 111
-38 51 -48 57 -60 34z"/>
<path d="M116 1574 c-4 -10 3 -23 20 -37 33 -26 63 -91 64 -137 0 -41 31 -96
58 -104 11 -4 38 0 61 9 23 8 60 22 84 31 52 20 100 22 121 5 8 -7 22 -34 31
-61 18 -53 63 -105 110 -125 44 -19 136 -28 165 -16 21 8 14 10 -40 10 -117 2
-198 56 -222 148 -20 83 -81 103 -176 58 -65 -30 -111 -32 -145 -5 -22 17 -27
32 -33 92 -6 62 -11 76 -42 110 -38 42 -47 46 -56 22z"/>
<path d="M1847 1569 c-9 -6 -37 -52 -61 -104 -58 -124 -72 -131 -174 -83 -89
42 -213 -6 -283 -109 -23 -34 -26 -42 -11 -29 23 20 31 9 10 -13 -7 -8 15 9
50 36 73 59 153 87 204 72 17 -4 49 -20 69 -34 75 -49 121 -31 172 70 29 58
61 91 99 100 22 6 35 -1 86 -48 51 -47 67 -56 111 -62 57 -8 67 -4 58 20 -4
10 -19 15 -42 15 -43 0 -87 21 -137 66 -74 66 -121 56 -168 -35 -37 -74 -86
-131 -111 -131 -11 0 -45 14 -76 30 -93 50 -190 33 -275 -48 -16 -14 -28 -21
-28 -16 0 14 96 87 133 101 50 18 91 15 149 -12 29 -14 66 -25 81 -25 34 0 73
37 83 77 10 40 39 95 60 115 37 33 66 32 113 -4 81 -61 95 -68 144 -68 40 0
47 3 47 20 0 18 -7 20 -54 20 -46 0 -62 6 -122 45 -69 46 -95 53 -127 34z"/>
<path d="M81 1491 c-14 -26 -14 -31 2 -31 15 0 60 -45 74 -75 6 -11 16 -42 22
-70 14 -58 45 -95 77 -95 12 0 60 18 105 40 120 58 146 53 185 -36 18 -42 35
-61 70 -84 53 -33 134 -47 191 -32 37 10 35 10 -28 11 -121 2 -184 37 -224
126 -13 28 -30 57 -40 65 -28 23 -85 17 -135 -15 -29 -19 -63 -30 -95 -33 -64
-5 -82 13 -96 97 -11 70 -18 85 -65 124 -32 27 -33 27 -43 8z"/>
<path d="M1889 1413 c-14 -15 -40 -52 -58 -81 -58 -91 -94 -102 -167 -50 -63
45 -143 51 -217 15 -29 -15 -68 -43 -87 -64 -19 -21 -24 -28 -10 -17 80 68
196 104 255 80 17 -7 44 -25 61 -39 68 -57 122 -42 179 53 42 70 67 90 112 90
26 0 40 -10 79 -55 32 -37 60 -58 83 -65 52 -14 81 -13 81 5 0 17 -7 20 -64
30 -29 5 -54 21 -96 61 -73 69 -113 79 -151 37z"/>
<path d="M47 1390 c-3 -14 0 -20 10 -20 29 0 87 -73 106 -131 33 -106 76 -117
188 -46 110 71 132 67 202 -42 47 -71 159 -100 262 -66 40 13 39 13 -26 8
-138 -11 -204 18 -249 111 -23 49 -64 72 -105 62 -14 -4 -53 -24 -86 -46 -110
-71 -150 -52 -188 87 -8 28 -24 52 -49 72 -43 36 -58 39 -65 11z"/>
<path d="M30 1295 c0 -16 6 -25 16 -25 31 0 73 -41 100 -98 55 -118 87 -127
187 -53 117 86 141 87 197 9 37 -50 59 -67 116 -84 53 -16 148 -3 203 27 20
11 27 17 16 13 -11 -4 -50 -14 -87 -22 -98 -22 -166 -6 -211 50 -92 117 -120
125 -202 57 -55 -46 -83 -59 -124 -59 -38 0 -64 28 -90 99 -18 51 -29 65 -65
86 -53 31 -56 31 -56 0z"/>
<path d="M1874 1218 c-40 -40 -81 -75 -91 -79 -26 -9 -72 10 -90 38 -26 39
-90 67 -153 67 -56 0 -148 -32 -171 -60 -7 -8 10 -5 42 10 125 55 182 48 270
-31 83 -73 105 -71 194 22 50 52 69 65 93 65 48 0 60 -8 98 -72 28 -45 47 -65
78 -79 53 -24 66 -24 66 1 0 12 -7 20 -16 20 -33 0 -95 45 -119 86 -14 23 -37
52 -51 63 -46 36 -70 28 -150 -51z"/>
<path d="M20 1205 c0 -18 5 -25 18 -25 27 0 87 -58 116 -110 50 -93 94 -100
174 -26 116 106 131 108 205 32 63 -64 107 -81 189 -72 48 5 138 37 138 50 0
1 -24 -5 -52 -15 -30 -10 -82 -18 -118 -19 -54 0 -72 4 -103 25 -20 14 -37 29
-37 33 0 4 -13 22 -29 40 -24 26 -37 32 -71 32 -35 0 -48 -7 -93 -49 -59 -55
-86 -71 -119 -71 -34 1 -52 19 -87 87 -26 53 -39 67 -81 88 l-50 25 0 -25z"/>
<path d="M1966 1212 c-11 -2 -52 -33 -93 -68 -89 -78 -114 -82 -168 -27 -19
20 -35 39 -35 43 0 4 -23 18 -52 30 -65 28 -131 23 -218 -16 -33 -15 -59 -28
-58 -30 2 -1 37 9 78 23 130 44 204 26 272 -66 49 -67 94 -65 170 5 104 96
149 93 208 -16 34 -62 89 -109 128 -110 27 0 8 43 -22 51 -38 11 -73 44 -101
99 -33 65 -68 91 -109 82z"/>
<path d="M1412 1153 c-60 -21 -48 -25 28 -10 113 24 188 0 238 -74 43 -64 50
-69 95 -69 35 0 51 7 83 33 64 54 87 67 120 67 39 0 61 -23 94 -103 21 -52 33
-66 69 -86 35 -19 45 -21 52 -10 13 21 11 26 -13 33 -37 9 -76 50 -99 102 -26
61 -66 104 -94 104 -12 0 -36 -10 -53 -22 -17 -13 -52 -38 -78 -57 -31 -22
-59 -34 -82 -35 -31 -1 -40 5 -73 49 -51 66 -106 94 -184 94 -33 0 -79 -7
-103 -16z"/>
<path d="M1422 1131 c-59 -15 -48 -23 23 -16 121 12 195 -23 237 -112 11 -24
30 -48 41 -54 31 -17 90 -4 136 29 63 46 103 57 139 38 29 -15 39 -33 64 -116
10 -33 24 -53 58 -78 40 -31 45 -32 51 -15 11 28 10 33 -7 33 -29 0 -81 64
-98 120 -33 109 -82 126 -181 60 -82 -55 -119 -66 -149 -46 -13 8 -35 34 -48
58 -45 82 -161 125 -266 99z"/>
<path d="M12 1108 c2 -14 12 -22 28 -25 34 -5 85 -41 104 -75 38 -64 66 -88
104 -88 30 0 43 8 91 61 58 63 96 89 129 89 11 0 41 -20 66 -43 47 -45 99 -67
154 -67 39 0 134 35 164 60 17 15 6 12 -47 -10 -75 -31 -158 -39 -198 -19 -12
6 -43 32 -69 57 -71 68 -99 65 -186 -20 -37 -36 -77 -69 -88 -72 -38 -12 -71
11 -106 71 -26 44 -44 63 -78 80 -58 28 -72 29 -68 1z"/>
<path d="M1375 1091 c-12 -5 8 -6 46 -4 82 7 164 -15 201 -54 15 -15 36 -49
48 -75 23 -52 52 -78 88 -78 13 0 53 16 89 35 121 64 170 43 188 -80 6 -41 15
-58 52 -94 39 -40 46 -43 54 -28 8 13 0 26 -35 59 -33 32 -46 53 -50 83 -9 56
-36 107 -67 124 -25 14 -32 12 -114 -27 -131 -63 -161 -57 -203 40 -15 35 -33
56 -68 78 -43 27 -55 30 -128 29 -45 0 -90 -4 -101 -8z"/>
<path d="M1442 1059 c125 -13 181 -52 213 -148 29 -90 68 -103 174 -60 87 35
112 36 146 7 21 -19 27 -35 32 -92 6 -64 10 -74 47 -114 36 -40 41 -42 49 -25
6 15 0 28 -27 57 -37 38 -41 48 -51 128 -13 98 -64 120 -168 72 -116 -52 -163
-42 -191 44 -32 95 -109 143 -228 141 l-73 -2 77 -8z"/>
<path d="M1370 1047 c3 -3 38 -12 77 -21 119 -25 172 -70 188 -161 16 -90 62
-111 164 -76 78 27 113 27 146 -2 22 -19 27 -33 31 -87 7 -92 11 -105 40 -139
29 -35 39 -38 48 -15 4 10 -5 29 -24 50 -32 37 -36 48 -45 139 -7 68 -33 105
-74 105 -14 0 -55 -9 -89 -20 -80 -25 -134 -26 -154 -2 -9 9 -23 42 -32 73
-18 66 -71 121 -133 139 -44 13 -150 25 -143 17z"/>
<path d="M419 1023 c-14 -8 -38 -35 -53 -59 -54 -85 -121 -108 -167 -56 -14
15 -37 44 -52 64 -38 51 -141 82 -130 38 3 -11 14 -20 25 -20 35 0 94 -38 129
-84 68 -90 113 -88 184 9 47 64 58 76 87 91 30 16 60 8 93 -23 47 -44 76 -57
138 -57 47 0 75 6 117 26 30 15 56 25 58 23 9 -9 -91 -57 -141 -67 -62 -13
-94 -4 -154 43 -67 54 -131 33 -176 -56 -21 -41 -66 -82 -100 -90 -25 -7 -34
-1 -86 53 -39 41 -70 64 -97 71 -55 15 -64 14 -64 -9 0 -15 7 -20 25 -20 38 0
83 -26 143 -82 46 -43 57 -49 90 -46 33 3 41 9 79 68 48 74 95 120 121 120 10
0 42 -16 72 -35 52 -34 81 -41 145 -36 47 4 127 47 165 88 19 21 26 30 14 20
-32 -26 -40 -20 -13 10 16 19 17 22 4 12 -64 -52 -188 -90 -247 -76 -13 4 -47
27 -76 52 -58 49 -89 56 -133 28z"/>
<path d="M1397 1009 c59 -11 133 -45 165 -76 31 -30 44 -61 53 -124 4 -30 14
-54 30 -69 21 -20 30 -22 77 -16 152 20 172 19 193 -4 17 -19 20 -34 18 -97
-2 -57 2 -84 17 -112 26 -52 44 -65 60 -46 11 13 9 19 -7 38 -35 38 -43 64
-43 140 0 60 -4 79 -21 101 -24 31 -44 32 -148 11 -119 -25 -149 -8 -166 96
-3 20 -21 57 -40 82 -40 52 -117 88 -188 86 l-42 -1 42 -9z"/>
<path d="M1415 975 c121 -43 175 -111 175 -222 0 -33 5 -46 28 -63 25 -20 34
-21 115 -15 148 11 178 -15 158 -136 -11 -67 -10 -73 11 -112 13 -22 29 -42
35 -45 24 -7 25 27 1 58 -21 29 -23 41 -20 125 4 139 -8 148 -178 130 -71 -7
-78 -6 -104 16 -22 20 -29 36 -35 85 -13 112 -91 184 -214 199 -36 4 -33 2 28
-20z"/>
<path d="M885 970 c-35 -38 -123 -90 -174 -102 -50 -11 -53 -10 -122 25 -109
57 -136 49 -187 -56 -33 -70 -71 -107 -110 -107 -16 0 -45 19 -83 54 -50 47
-64 54 -106 58 -58 5 -63 4 -56 -22 4 -15 11 -18 32 -14 37 8 87 -15 144 -65
36 -30 57 -41 82 -41 39 0 57 16 87 73 36 72 68 114 95 126 23 11 34 8 85 -18
106 -56 198 -37 294 60 27 27 46 49 43 49 -3 0 -14 -9 -24 -20z"/>
<path d="M1405 947 c74 -36 127 -84 144 -130 6 -16 10 -56 9 -89 -3 -55 -1
-62 25 -84 25 -22 37 -24 123 -24 87 0 97 -2 119 -25 29 -28 32 -67 10 -139
-14 -45 -13 -51 6 -97 22 -51 28 -56 46 -38 7 7 5 21 -9 47 -17 32 -18 50 -13
137 9 133 5 138 -129 136 -52 -1 -105 4 -119 10 -32 15 -49 54 -44 102 5 41
-21 108 -56 145 -27 30 -101 67 -147 76 -27 5 -18 -1 35 -27z"/>
<path d="M1375 930 c123 -66 161 -124 150 -231 -7 -67 -6 -69 23 -99 28 -28
36 -30 104 -30 132 0 169 -45 129 -157 -22 -62 -22 -64 -6 -118 19 -58 25 -64
45 -40 9 11 8 19 -4 37 -20 29 -20 95 0 165 29 99 -6 133 -137 133 -67 0 -116
15 -129 40 -5 10 -9 47 -9 83 1 85 -25 145 -83 187 -45 33 -70 46 -116 56 -15
4 0 -8 33 -26z"/>
<path d="M1334 927 c61 -38 123 -98 145 -140 22 -44 23 -52 13 -98 -19 -81
-16 -104 19 -133 20 -17 42 -26 65 -26 63 0 123 -21 149 -52 14 -16 25 -34 25
-40 0 -5 -14 -40 -30 -78 -28 -64 -29 -71 -18 -120 8 -37 16 -50 27 -48 11 3
15 12 13 28 -2 14 -6 44 -9 68 -4 31 1 57 16 92 12 27 21 61 21 75 0 59 -27
75 -149 90 -65 7 -107 28 -116 55 -4 11 -3 45 0 75 14 107 -34 193 -134 245
-43 22 -68 27 -37 7z"/>
<path d="M860 875 c-81 -82 -163 -104 -250 -64 -80 36 -120 11 -151 -94 -23
-78 -62 -127 -101 -127 -14 0 -49 18 -78 40 -48 36 -60 40 -112 40 -57 0 -64
-4 -52 -34 4 -12 11 -13 32 -5 35 13 76 3 149 -37 34 -19 71 -34 83 -34 34 0
65 41 88 115 38 124 69 148 154 114 79 -31 141 -19 218 41 29 23 79 90 68 90
-2 0 -24 -20 -48 -45z"/>
<path d="M883 857 c-27 -35 -61 -64 -97 -83 l-55 -29 -68 18 c-86 22 -95 21
-126 -3 -19 -15 -29 -36 -37 -78 -30 -153 -80 -186 -182 -121 -43 28 -55 31
-103 27 -62 -5 -68 -8 -59 -32 5 -12 12 -15 28 -9 39 15 104 6 157 -21 101
-50 138 -30 164 87 17 79 45 134 72 144 9 4 41 0 72 -9 47 -12 65 -12 111 -2
47 10 63 20 108 69 56 61 68 64 25 6 -69 -92 -138 -118 -233 -91 -27 8 -41 6
-69 -8 -39 -19 -47 -36 -56 -124 -4 -34 -15 -70 -28 -90 -30 -44 -68 -47 -143
-12 -53 25 -60 26 -110 15 -56 -13 -60 -16 -44 -41 8 -12 13 -13 30 -2 30 18
98 15 160 -9 62 -23 109 -20 128 11 6 11 17 52 22 90 19 137 47 167 135 148
98 -21 188 32 246 144 23 45 25 59 3 32 -15 -18 -15 -18 -9 4 4 12 5 22 3 22
-2 0 -22 -24 -45 -53z"/>
<path d="M1294 857 c94 -97 114 -170 72 -262 -14 -32 -26 -71 -26 -87 0 -36
39 -74 90 -88 48 -13 102 -49 117 -79 15 -31 4 -59 -47 -124 -35 -44 -40 -56
-40 -103 0 -30 3 -54 8 -54 20 1 34 19 28 38 -11 33 10 94 48 143 35 44 49
100 32 128 -5 7 -50 32 -101 56 -119 55 -135 82 -95 158 25 45 27 135 4 182
-21 45 -75 106 -112 128 -24 13 -19 6 22 -36z"/>
<path d="M1328 861 c48 -47 102 -135 102 -169 0 -7 -9 -38 -20 -69 -11 -32
-20 -70 -20 -86 0 -36 41 -74 89 -83 80 -15 141 -63 141 -112 0 -13 -19 -49
-41 -82 -40 -56 -41 -60 -35 -114 6 -46 10 -55 23 -48 10 6 15 28 17 73 1 53
7 72 34 113 34 54 42 105 18 129 -8 7 -55 28 -105 46 -55 20 -97 41 -106 54
-19 27 -19 64 0 97 18 32 19 111 1 154 -18 44 -81 113 -120 133 -26 12 -22 6
22 -36z"/>
<path d="M950 860 c-19 -47 -74 -118 -111 -146 -30 -22 -42 -25 -109 -23 -41
1 -85 -1 -98 -5 -33 -11 -52 -57 -52 -126 0 -74 -20 -126 -55 -142 -22 -10
-38 -8 -96 12 -69 23 -70 23 -125 6 -52 -17 -55 -19 -40 -35 16 -17 18 -17 58
2 40 20 43 20 107 4 140 -36 161 -22 171 116 11 138 28 159 126 150 102 -10
189 53 230 168 17 49 13 64 -6 19z"/>
<path d="M997 850 c-19 -116 -89 -203 -175 -220 -29 -5 -56 -9 -60 -9 -24 4
-44 -4 -63 -23 -19 -21 -20 -30 -14 -121 10 -146 -16 -175 -139 -154 -63 11
-69 10 -111 -13 -25 -14 -45 -30 -45 -36 0 -23 31 -23 61 -1 27 19 44 22 122
22 51 1 99 4 108 8 22 11 39 51 33 79 -2 13 -7 57 -11 100 -6 73 -5 77 20 102
21 21 36 26 75 26 58 0 131 41 162 92 27 44 52 131 48 165 -3 23 -5 19 -11
-17z"/>
<path d="M1227 859 c45 -50 83 -138 83 -194 0 -45 -6 -61 -40 -111 -62 -92
-52 -124 62 -197 101 -64 105 -105 17 -187 -58 -53 -62 -60 -67 -110 -4 -47
-3 -53 12 -47 10 4 20 7 22 7 2 0 4 14 4 31 0 44 26 94 64 123 44 33 69 86 57
120 -6 14 -42 46 -83 74 -117 79 -124 96 -72 173 48 72 56 136 25 213 -13 30
-31 62 -42 72 -10 9 -19 22 -19 27 0 22 42 -29 70 -86 45 -90 41 -126 -28
-241 -26 -45 4 -94 83 -133 122 -61 136 -112 54 -198 -45 -48 -51 -59 -56
-110 -6 -52 -4 -57 13 -53 12 2 19 12 20 28 2 55 18 93 60 142 24 29 44 57 45
62 0 6 2 20 4 31 6 33 -22 64 -88 95 -74 37 -117 76 -117 108 0 13 12 44 27
70 37 63 37 137 1 207 -27 51 -88 118 -88 97 0 -10 -5 -10 -22 -1 l-23 12 22
-24z"/>
<path d="M964 825 c-43 -114 -105 -165 -201 -165 -71 0 -106 -13 -121 -44 -6
-11 -12 -65 -14 -119 -3 -91 -5 -100 -28 -117 -31 -24 -56 -25 -126 -4 -50 14
-58 14 -100 -2 -52 -20 -60 -29 -43 -50 10 -13 14 -13 28 0 27 24 87 32 163
22 57 -8 75 -7 97 5 25 14 26 18 31 133 5 109 7 119 29 137 17 14 39 19 81 19
104 0 177 60 214 174 21 63 13 71 -10 11z"/>
<path d="M1176 793 c43 -125 30 -184 -56 -264 -84 -78 -82 -100 11 -200 80
-85 70 -139 -35 -191 -53 -26 -67 -39 -85 -75 -26 -54 -26 -63 -2 -63 13 0 23
11 30 33 13 38 65 91 98 101 12 4 36 20 52 36 44 40 42 79 -7 133 -109 120
-117 155 -48 212 60 49 90 120 81 190 -5 44 -47 155 -58 155 -2 0 7 -30 19
-67z"/>
<path d="M1013 794 c-14 -67 -58 -144 -97 -169 -14 -9 -49 -20 -78 -24 -95
-13 -116 -38 -104 -123 19 -133 19 -152 -2 -178 -19 -24 -25 -25 -105 -22 -80
2 -86 1 -127 -29 -39 -28 -41 -32 -26 -47 14 -15 17 -14 38 5 39 35 64 43 141
43 61 0 79 4 102 21 30 24 30 37 5 176 -19 106 -9 117 125 148 48 11 111 82
130 148 9 31 15 69 13 84 -2 21 -6 12 -15 -33z"/>
<path d="M1066 770 c-11 -128 -50 -180 -159 -216 -37 -12 -52 -24 -64 -50 -16
-32 -15 -36 15 -113 18 -44 32 -90 32 -103 0 -53 -55 -88 -140 -88 -38 0 -71
-19 -107 -60 -21 -25 -21 -25 -2 -34 15 -7 23 -5 34 11 25 35 78 62 138 69 68
8 107 38 107 81 0 16 -13 60 -30 98 -49 116 -41 144 55 185 96 41 125 86 133
207 6 101 -3 111 -12 13z"/>
<path d="M1094 764 c1 -65 -3 -88 -24 -129 -21 -43 -34 -55 -89 -82 -104 -53
-112 -81 -56 -192 40 -78 43 -108 15 -144 -15 -18 -37 -28 -86 -38 -56 -11
-72 -19 -105 -54 -44 -45 -46 -50 -22 -59 11 -5 25 4 46 29 33 41 66 59 122
69 52 10 83 30 96 63 8 22 3 40 -31 111 -59 123 -53 161 30 196 40 17 81 57
104 103 17 33 21 151 7 187 -4 11 -7 -16 -7 -60z"/>
<path d="M1148 805 c4 -22 7 -74 7 -115 -1 -89 -14 -114 -84 -159 -84 -54 -87
-98 -14 -192 78 -101 67 -154 -43 -193 -50 -18 -64 -29 -92 -71 -30 -45 -32
-50 -15 -56 28 -12 33 -10 33 8 0 32 49 80 114 111 71 34 102 69 93 104 -4 13
-29 53 -57 89 -30 39 -53 81 -57 102 -6 38 3 50 78 106 48 37 73 101 66 175
-2 34 -12 77 -20 96 l-16 35 7 -40z"/>
<path d="M1036 779 c-17 -124 -70 -186 -173 -204 -74 -12 -101 -72 -68 -151 8
-19 17 -57 21 -84 6 -43 4 -51 -19 -74 -23 -23 -34 -26 -95 -26 -60 0 -74 -4
-110 -29 -51 -37 -56 -46 -36 -62 13 -11 18 -10 32 9 25 32 100 62 158 62 37
0 59 6 78 21 32 25 33 55 6 134 -29 83 -27 138 5 163 14 11 43 23 64 27 28 5
53 20 84 51 40 39 48 54 63 120 11 50 13 79 7 85 -7 7 -13 -8 -17 -42z"/>
<path d="M1124 745 c1 -119 -16 -156 -99 -206 -94 -57 -100 -98 -31 -199 42
-60 48 -114 17 -146 -10 -12 -45 -28 -77 -37 -70 -20 -72 -22 -107 -68 -32
-43 -33 -45 -6 -52 15 -4 22 1 29 17 13 35 77 83 127 95 25 7 56 23 70 37 34
34 27 71 -25 153 -67 103 -65 140 14 185 20 12 51 38 68 59 28 35 31 47 34
120 2 45 -1 93 -6 107 -7 18 -9 1 -8 -65z"/>
</g>
</svg>
